<svg width="56" height="56" viewBox="0 0 56 56" fill="none" xmlns="http://www.w3.org/2000/svg">
<g id="lucide/shield-check">
<path id="Vector" d="M20.9999 28L25.6666 32.6667L34.9999 23.3334M46.6666 30.3334C46.6666 42 38.4999 47.8334 28.7933 51.2167C28.285 51.3889 27.7328 51.3807 27.2299 51.1934C17.4999 47.8334 9.33325 42 9.33325 30.3334V14C9.33325 13.3812 9.57909 12.7877 10.0167 12.3501C10.4543 11.9125 11.0477 11.6667 11.6666 11.6667C16.3333 11.6667 22.1666 8.8667 26.2266 5.32003C26.7209 4.8977 27.3497 4.66565 27.9999 4.66565C28.6501 4.66565 29.2789 4.8977 29.7733 5.32003C33.8566 8.89003 39.6666 11.6667 44.3333 11.6667C44.9521 11.6667 45.5456 11.9125 45.9832 12.3501C46.4208 12.7877 46.6666 13.3812 46.6666 14V30.3334Z" stroke="#00A3E0" stroke-width="4" stroke-linecap="round" stroke-linejoin="round"/>
</g>
</svg>
